<?xml version="1.0" encoding="utf-8"?>
<!-- Generator: Adobe Illustrator 23.0.1, SVG Export Plug-In . SVG Version: 6.00 Build 0)  -->
<svg version="1.1" id="Layer_1" xmlns="http://www.w3.org/2000/svg" xmlns:xlink="http://www.w3.org/1999/xlink" x="0px" y="0px"
	 viewBox="0 0 1000 1000" style="enable-background:new 0 0 1000 1000;" xml:space="preserve">
<style type="text/css">
	.st0{fill-rule:evenodd;clip-rule:evenodd;}
	.st1{fill:#D0D2D3;}
	.st2{fill-rule:evenodd;clip-rule:evenodd;fill:#D0D2D3;}
</style>
<g id="g4230_3_" transform="translate(443.0759,768.4241)">
	<path id="path4232_3_" d="M270.5-67c-21.7,20.6-45.5,36.8-71.1,48c-5.1,1.8-10.1,4-14.8,5.4c4.7-2.9,9.8-6.1,14.8-9.4
		c26-17.7,50.2-38.6,71.1-63.2c40.8-48,68.2-109.4,67.2-184.1c-1.5-74-27.8-133.6-67.2-180.5C249.9-475,225.4-496,199.4-514
		c-5.1-3.3-10.1-6.5-14.8-9.8c4.7,2.5,9.8,4.7,14.8,7.2c26,13,49.8,29.6,71.1,49.5c50.9,48.7,84.1,116.6,85.6,196.8
		C357.5-189.8,322.1-116.5,270.5-67 M149.5-155.9c-8.7,5-17.3,8.7-26,10.4c9.4-6.1,18.1-12.6,26-19.8c26-24.2,41.9-55.6,41.5-102.9
		c-0.7-46.6-16.2-78.4-41.5-102.5c-7.9-7.6-16.6-14.1-26-20.6c8.7,3.2,17.3,7.2,26,12.2c20.2,12.3,37.9,30.7,49.8,53.5
		c8.7,17,14.1,36.5,14.4,57.4c0,21.7-5.4,41.9-14.4,59.5C187.4-185.9,169.4-167.5,149.5-155.9 M-61.9-268.4
		c0-68.9,55.2-130.6,118.8-133.3c63.6,2.7,118.8,64.3,118.8,133.3c0,68.9-55.2,130.6-118.8,133.3C-6.7-137.8-61.9-199.5-61.9-268.4
		 M-35-155.6c-20.2-11.6-38.3-30-50.2-53.1c-9.4-17.7-14.8-37.9-14.4-59.5c0-21,5.4-40.4,14.4-57.4c11.5-23.1,29.6-41.5,50.2-53.8
		c7.9-4.7,16.6-8.7,25.3-11.9c-9.4,6.2-17.7,12.7-25.3,19.8c-26,24.6-41.5,56.4-41.9,103.3c-0.7,47.6,15.5,79,41.9,103.3
		c7.6,7.2,15.9,13.7,25.3,19.5C-18.4-147.3-27-150.9-35-155.6 M-85.5-19c-25.7-11.2-49.5-27.4-71.2-48
		c-51.6-49.5-87-122.8-85.6-203.3c1.4-80.2,34.7-148.1,85.6-196.8c21.3-19.9,45.1-36.5,71.2-49.5c5-2.5,10.1-4.7,14.8-7.2
		c-4.7,3.2-9.8,6.5-14.8,9.8c-26,18-50.6,39-71.2,63.2c-39.3,46.9-65.7,106.5-67.2,180.5c-1.1,74.7,26.4,136.1,67.2,184.1
		c21,24.6,45.1,45.5,71.2,63.2c5,3.2,10.1,6.5,14.8,9.4C-75.4-15-80.5-17.2-85.5-19 M56.9-563.1c-177.8,0-314.6,131.9-314.6,294.7
		S-120.9,26.3,56.9,26.3s314.7-132,314.7-294.7S234.8-563.1,56.9-563.1"/>
</g>
</svg>
